<svg xmlns="http://www.w3.org/2000/svg" width="512" height="512" viewBox="0 0 200 200">
  <defs>
    <linearGradient id="pinG" x1="20%" y1="0%" x2="80%" y2="100%">
      <stop offset="0%" stop-color="#F5C842"/>
      <stop offset="50%" stop-color="#E8A020"/>
      <stop offset="100%" stop-color="#C47B0A"/>
    </linearGradient>
    <clipPath id="rApp"><rect x="0" y="0" width="200" height="200" rx="44"/></clipPath>
  </defs>
  <rect width="200" height="200" rx="44" fill="#FFF8E6"/>
  <g clip-path="url(#rApp)">
    <path d="M100,28 C76,28 56,48 56,72 C56,100 100,160 100,160 C100,160 144,100 144,72 C144,48 124,28 100,28 Z" fill="url(#pinG)"/>
    <circle cx="100" cy="70" r="26" fill="#3A6EA8"/>
    <circle cx="100" cy="70" r="12" fill="#FFE082"/>
    <g stroke="#FFE082" stroke-width="2.5" stroke-linecap="round">
      <line x1="100" y1="48" x2="100" y2="42"/>
      <line x1="113" y1="53" x2="117" y2="48"/>
      <line x1="120" y1="66" x2="126" y2="66"/>
      <line x1="100" y1="86" x2="100" y2="92"/>
      <line x1="80"  y1="66" x2="74"  y2="66"/>
      <line x1="87"  y1="53" x2="83"  y2="48"/>
    </g>
  </g>
</svg>
